<?xml version="1.0" encoding="utf-8"?>
<!-- Generator: Adobe Illustrator 24.1.2, SVG Export Plug-In . SVG Version: 6.00 Build 0)  -->
<svg version="1.1" id="Ebene_1" xmlns="http://www.w3.org/2000/svg" xmlns:xlink="http://www.w3.org/1999/xlink" x="0px"
	 y="0px"
	 viewBox="0 0 425.2 81.4" style="enable-background:new 0 0 425.2 81.4;" xml:space="preserve">
<style type="text/css">
	.st0{fill:#EC6702;}
	.st1{fill:#6F6F6F;}
	.st2{fill:#CECECE;}
	.st3{fill-rule:evenodd;clip-rule:evenodd;fill:#EC6702;}
</style>
	<g>
	<g>
		<g>
			<path class="st0" d="M34.6,41.8c-3.8,1.1-7.8,1.6-11.8,1.6C12.2,43.4,0,38.1,0,23C0,9.2,9.7,2.3,22.8,2.3c4,0.1,8,0.8,11.8,2.1
				l-0.9,8.6c-3.2-1.8-6.7-2.8-10.4-2.8c-7.5,0-12.4,5.5-12.4,12.9c0,7.8,5.5,12.5,13.3,12.5c3.4-0.1,6.8-0.8,9.9-2.1L34.6,41.8z"/>
			<path class="st0" d="M39.5,0h10.3v42.7H39.5V0z"/>
			<path class="st0" d="M65.5,30.9c0.6,4.1,3.7,5.7,8.7,5.7c3.2,0,6.3-0.8,9.1-2.3v7.2c-3.5,1.3-7.2,1.9-10.9,1.9
				c-9.8,0-17.3-5.8-17.3-15.6S61.8,12.4,71,12.4c11,0,15,7.8,15,16.6v1.9L65.5,30.9z M76.7,25.1c0-3.4-1.6-6.2-5.7-6.2
				c-3.7,0-5.5,2.8-5.7,6.2H76.7z"/>
			<path class="st0" d="M86.9,13h11l6.2,21.1h0.1l6.2-21.1h10.2l-11,29.7H97.9L86.9,13z"/>
			<path class="st0" d="M131.5,30.9c0.6,4.1,3.7,5.7,8.7,5.7c3.2,0,6.3-0.8,9.1-2.3v7.2c-3.5,1.3-7.2,1.9-10.9,1.9
				c-9.8,0-17.3-5.8-17.3-15.6s6.7-15.5,15.9-15.5c11,0,15,7.8,15,16.6v1.9L131.5,30.9z M142.8,25.1c0-3.4-1.6-6.2-5.7-6.2
				c-3.7,0-5.5,2.8-5.7,6.2H142.8z"/>
			<path class="st0" d="M178.3,21.2c-1.1-0.3-2.3-0.4-3.5-0.3c-4.8,0-7.5,3.5-7.5,9.3v12.5h-10.3V13h9.3v5.5h0.1
				c1.8-3.8,4.3-6.2,8.8-6.2c1.2,0,2.3,0.1,3.5,0.3L178.3,21.2z"/>
		</g>
		<g>
			<path class="st1" d="M182.9,3h9.7c7.9,0,15.4,1.3,15.4,10.8c0,4.8-3.6,8.3-8.2,9.1v0.1c1.8,0.7,2.6,1.5,3.9,4l7.5,15.8h-6.5
				l-6.1-13.8c-1.8-3.9-3.6-3.9-6.7-3.9h-3.4v17.7h-5.7L182.9,3z M188.6,20.1h4.8c5.4,0,8.6-2.4,8.6-6.2c0-3.6-2.7-5.9-8-5.9h-5.5
				L188.6,20.1z"/>
			<path class="st1" d="M238.6,41.5c-2.9,1.3-6,1.9-9.2,1.9c-10.3,0-15-6.3-15-15.7c0-8.6,5.4-14.7,13.6-14.7
				c9.7,0,12.8,7.1,12.8,16.4h-20.7c-0.1,5.2,4.1,9.6,9.3,9.7c0.1,0,0.2,0,0.2,0c3.2-0.1,6.3-1.1,8.9-2.9L238.6,41.5z M235.1,25.4
				c0-4.4-2.6-8.1-7.2-8.1c-5.2,0-7.4,4.3-7.8,8.1H235.1z"/>
			<path class="st1" d="M248.4,15.7c2.9-1.8,6.2-2.7,9.6-2.7c8.3,0,11.7,4.1,11.7,12v12c0,1.9,0,3.8,0.2,5.7h-5V39h-0.1
				c-2.1,2.9-5.5,4.5-9,4.4c-6.3,0-10.7-2.7-10.7-9.1c0-7.3,8-9.6,13.5-9.6c2.1,0,3.6,0,5.7,0.1c0-5-1.8-7.6-7.2-7.6
				c-3.1,0-6,1.1-8.4,3L248.4,15.7z M264.3,28.9c-1.1,0-2.3-0.1-3.4-0.1c-2.9,0-10.1,0.5-10.1,5.6c0,3.1,3,4.7,5.4,4.7
				c5.3,0,8.1-3.3,8.1-7.6V28.9z"/>
			<path class="st1" d="M296.6,18.6c-1.8-0.8-3.8-1.2-5.8-1.3c-6,0-9.3,5.4-9.3,10.9c0,5.2,2.8,10.9,9.7,10.9c2,0,4-0.6,5.8-1.7
				l0.4,4.8c-2.1,0.9-4.4,1.3-6.7,1.2c-8.8,0-14.8-6.9-14.8-15.2c0-8.8,5.9-15.2,14.8-15.2c2.2,0,4.4,0.4,6.5,1.1L296.6,18.6z"/>
			<path class="st1" d="M302.5,0h5.4v17.8h0.1c2-3.1,5.6-5,9.3-4.8c7.5,0,10.9,4.7,10.9,12.5v17.3h-5.4v-15c0-6.8-1.5-10.1-6.2-10.4
				c-6.1,0-8.8,4.9-8.8,12v13.4h-5.4V0z"/>
		</g>
		<g id="registered">
			<path class="st1" d="M332.4,0c0.7,0,1.5,0.2,2.1,0.5c0.7,0.4,1.2,0.9,1.6,1.6c0.8,1.3,0.8,2.9,0,4.3c-0.4,0.7-0.9,1.2-1.6,1.6
				c-1.3,0.8-2.9,0.8-4.2,0c-0.7-0.4-1.2-0.9-1.6-1.6c-0.8-1.3-0.8-2.9,0-4.3c0.4-0.7,0.9-1.2,1.6-1.6C331,0.2,331.7,0,332.4,0z
				 M332.4,0.8c-0.6,0-1.2,0.2-1.7,0.4c-0.5,0.3-1,0.7-1.3,1.3c-0.6,1.1-0.6,2.4,0,3.4c0.3,0.5,0.7,1,1.3,1.3c1.1,0.6,2.3,0.6,3.4,0
				c0.5-0.3,1-0.7,1.3-1.3c0.6-1.1,0.6-2.4,0-3.4c-0.3-0.5-0.7-1-1.3-1.3C333.6,1,333,0.8,332.4,0.8z M330.5,6.5V2h0.9
				c0.9,0,1.3,0,1.4,0c0.2,0,0.5,0.1,0.7,0.2c0.2,0.1,0.3,0.3,0.4,0.4c0.1,0.2,0.2,0.4,0.2,0.6c0,0.3-0.1,0.6-0.3,0.8
				c-0.2,0.2-0.6,0.4-0.9,0.4c0.1,0,0.2,0.1,0.3,0.2c0.1,0.1,0.2,0.2,0.3,0.3c0,0,0.1,0.2,0.3,0.5l0.5,0.9h-1.1l-0.4-0.7
				c-0.2-0.3-0.4-0.7-0.6-0.9c-0.2-0.1-0.4-0.2-0.6-0.2h-0.2v1.9L330.5,6.5z M331.4,4h0.4c0.3,0,0.7,0,1-0.1c0.1,0,0.2-0.1,0.3-0.2
				c0.1-0.1,0.1-0.2,0.1-0.3c0-0.1,0-0.2-0.1-0.3c-0.1-0.1-0.2-0.2-0.3-0.2c-0.3-0.1-0.7-0.1-1-0.1h-0.4L331.4,4z"/>
		</g>
	</g>
		<g>
		<path id="swoesh" class="st2" d="M375.7,44.5c-44,39.4-133.9,56.1-212.7,4.6c81.5,27.2,148.6,20.7,190.8-10.1
			C365.1,41.8,359.7,40.3,375.7,44.5z"/>
			<g>
			<path class="st3" d="M391.3,14.6c-0.2-0.7-3.4-12-3.4-12c0-0.2-0.3-0.4-0.5-0.3c-0.1,0-0.1,0-0.2,0.1l-42.4,27.2
				c-0.7,0.4-0.6,0.6,0.2,0.4l43-11.7c1.2-0.2,2.4-0.9,3.2-1.9C391.5,15.9,391.5,15.2,391.3,14.6z"/>
				<path class="st3" d="M421.8,6.4l-0.6-0.1l-30.3-4.4c-0.2-0.1-0.4,0.1-0.4,0.2c0,0.1,0,0.2,0,0.2c0,0,3.2,11.4,3.2,11.6
				c0.4,1.2,0.3,2.6-0.4,3.7c-0.8,1.4-2.4,2.4-4.7,3.1l-43.8,11.9c-0.5,0.1-0.4,0.3,0,0.4l42.2,10.6c3.6,0.9,8,0,9.6-1.9L425,8.6
				C425.7,7.7,424.2,6.8,421.8,6.4z"/>
		</g>
	</g>
</g>
</svg>
